<?xml version="1.0" encoding="utf-8"?>
<!-- Generator: Adobe Illustrator 26.5.0, SVG Export Plug-In . SVG Version: 6.00 Build 0)  -->
<svg version="1.1" id="Layer_1" xmlns="http://www.w3.org/2000/svg" xmlns:xlink="http://www.w3.org/1999/xlink" x="0px" y="0px"
	 viewBox="0 0 682.9 216.7" style="enable-background:new 0 0 682.9 216.7;" xml:space="preserve">
<path d="M396.5,0.5h286.4v47.3H412.1c-4.8,0-8.3,1.9-10.3,5.6c-2.1,3.7-3.1,8.5-3.1,14.5v81.6c0,5.9,1.2,10.8,3.6,14.5
	c2.4,3.7,5.5,5.6,9.1,5.6h218.9c3.6,0,6.8-1.9,9.6-5.6c2.8-3.7,4.2-8.5,4.2-14.5v-3.6c-0.5-5.1-1.8-8.6-4-10.7s-5.3-3.1-9.4-3.1
	H480.7V84.7h165.9c9.7,0,18.2,4.3,25.4,12.9c7.3,8.6,10.9,20.2,10.9,34.8v37c0,7.7-1,14.5-3.1,20.3c-2.1,5.8-4.8,10.7-8.2,14.7
	c-3.4,4-7.3,7.1-11.8,9.1c-4.5,2.1-9,3.1-13.6,3.1H396.6c-4.9,0-9.4-1-13.8-3.1c-4.4-2.1-8.2-5.1-11.6-9.1c-3.4-4-6.1-8.9-8.2-14.7
	c-2.1-5.8-3.1-12.6-3.1-20.3V47.7c0-7.4,1-14.1,3.1-20.1c2-5.9,4.8-10.9,8.2-14.9c3.4-4,7.3-7.1,11.6-9.1
	C387.1,1.5,391.7,0.5,396.5,0.5"/>
<path d="M52,47.3h270.8V0H36.3c-4.9,0-9.4,1-13.8,3.1c-4.4,2.1-8.2,5.1-11.6,9.1c-3.4,4-6.1,9-8.2,14.9C0.9,32.5,0.2,38.6,0,45.1
	c0,0,0,0,0,0v125.9c0.2,6.8,0.9,13,2.8,18.2c2,5.8,4.8,10.7,8.2,14.7c3.4,4,7.3,7.1,11.6,9.1c4.4,2.1,9,3.1,13.8,3.1h286.4V169H51.2
	c-3.6,0-6.7-1.9-9.1-5.6c-2.2-3.4-3.3-7.9-3.5-13.2c0.2-5.2,1.1-9.6,2.9-12.9c2-3.7,5.5-5.6,10.3-5.6h270.8V84.4H52
	c-4.8,0-8.3-1.9-10.3-5.6c-1.9-3.4-2.8-7.8-2.9-13c0.2-5.2,1.1-9.6,2.9-13C43.7,49.1,47.1,47.2,52,47.3L52,47.3z"/>
</svg>
