<?xml version="1.0" encoding="utf-8"?>
<!-- Generator: Adobe Illustrator 26.5.0, SVG Export Plug-In . SVG Version: 6.00 Build 0)  -->
<svg version="1.1" id="Layer_1" xmlns="http://www.w3.org/2000/svg" xmlns:xlink="http://www.w3.org/1999/xlink" x="0px" y="0px"
	 viewBox="0 0 1447.9 210.8" style="enable-background:new 0 0 1447.9 210.8;" xml:space="preserve">
<style type="text/css">
	.st0{enable-background:new    ;}
	.st1{fill:#A07F37;}
</style>
<g class="st0">
	<path class="st1" d="M111.4,76.5H0.1v-58h111.3V30H11.9v11.7h99.5v11.6H11.9v11.5h99.5V76.5z"/>
	<path class="st1" d="M232.1,76.5h-11.5V53.3h-88.2v23.2h-11.5V18.6h11.5v23.1h88.2V18.6h11.5V76.5z"/>
	<path class="st1" d="M352.9,62.2c0,9.5-4.7,14.2-14.2,14.2h-97.1l0.1-11.5h94.9c3.1,0,4.6-1.4,4.7-4.3v-2.8
		c0.1-3.1-1.5-4.6-4.8-4.6h-81c-9.4,0-14-4.3-14-13v-7.7c0-9.4,4.6-14.1,13.8-14.1l97.5-0.1V30h-95.1c-3.1,0-4.6,1.5-4.6,4.6V37
		c0,3.2,1.5,4.7,4.5,4.7h81c9.5,0,14.2,4.6,14.2,13.7V62.2z"/>
	<path class="st1" d="M473.7,76.4H462V57.7H374v18.6h-11.5V32.8c0-9.6,4.7-14.4,14-14.4h83.3c9.3,0,14,4.8,14,14.5V76.4z M374,46.2
		H462V34.6c0-3.1-1.5-4.6-4.6-4.6h-78.7c-3.1,0-4.6,1.6-4.6,4.7V46.2z"/>
	<path class="st1" d="M494.5,31.8v44.6H483l-0.1-58h11.6l88,44.3l0-44.2h11.7v57.8h-11.7L494.5,31.8z"/>
</g>
<g class="st0">
	<path class="st1" d="M53.4,167.2v-11.5h58v20.4c0,9.5-4.7,14.2-14,14.2H14c-9.3,0-14-4.7-14-14.2l0.1-29.8
		c0-9.3,4.6-13.9,13.7-13.9h97.5v11.6H16.3c-3,0-4.5,1.7-4.5,5v25c0,3.1,1.5,4.7,4.5,4.7h79c3.1,0,4.6-1.6,4.6-4.7v-7H53.4z"/>
	<path class="st1" d="M232.1,190.4h-11.5v-23.2h-88.2v23.2h-11.5v-57.9h11.5v23.1h88.2v-23.1h11.5V190.4z"/>
	<path class="st1" d="M255.5,190.4c-9.3,0-13.9-4.7-13.9-14v-30c0-9.3,4.6-13.9,13.8-13.9h83.4c9.4,0,14.1,4.7,14.1,14.2v30
		c0,9-4.6,13.5-13.7,13.5L255.5,190.4z M341.2,174.2V149c0-3.2-1.5-4.9-4.6-4.9h-78.7c-3.1,0-4.6,1.5-4.6,4.5v25.5
		c0,3.1,1.5,4.7,4.6,4.7h78.8C339.7,178.8,341.2,177.3,341.2,174.2z"/>
	<path class="st1" d="M473.5,190.4h-14.1l-14-18.6h-71.6v18.6H362l0.1-58h97.4c9.2,0,13.8,4.6,13.8,13.7V158c0,9.2-4.7,13.8-14,13.8
		L473.5,190.4z M456.7,144.1h-82.9v16.3h83.4c3.1,0,4.6-1.6,4.6-4.9v-6.7C461.8,145.6,460.1,144.1,456.7,144.1z"/>
	<path class="st1" d="M580,190.3l-97.3,0.1v-57.9h97.5c9.2,0,13.8,4.6,13.8,13.9v6.8c0,4.8-2.4,7.5-7.2,8.3c4.8,0.7,7.2,3.3,7.2,7.8
		v7.3C594,185.7,589.3,190.3,580,190.3z M577.7,178.9c3.1,0,4.6-1.5,4.7-4.6V172c0.1-3.2-1.4-4.7-4.4-4.7h-83.7v11.6H577.7z
		 M494.4,155.7h83.3c3.1,0,4.6-1.6,4.7-4.8v-2.3c0.1-3-1.5-4.6-4.8-4.6h-83.2V155.7z"/>
	<path class="st1" d="M714.7,190.3H703v-18.6H615v18.6h-11.5v-43.6c0-9.6,4.7-14.4,14-14.4h83.3c9.3,0,14,4.8,14,14.5V190.3z
		 M615,160.1H703v-11.5c0-3.1-1.5-4.6-4.6-4.6h-78.7c-3.1,0-4.6,1.6-4.6,4.7V160.1z"/>
	<path class="st1" d="M735.6,145.8v44.6H724l-0.1-58h11.6l88,44.3l0-44.2h11.7v57.8h-11.7L735.6,145.8z"/>
	<path class="st1" d="M844.7,169.5l99.6-25.5l-99.6,0.1l-0.1-11.8h111.3v21.3l-99.6,25.3h99.6v11.5H844.7V169.5z"/>
	<path class="st1" d="M1076.8,190.3H1065v-18.6h-87.9v18.6h-11.5v-43.6c0-9.6,4.7-14.4,14-14.4h83.3c9.3,0,14,4.8,14,14.5V190.3z
		 M977.1,160.1h87.9v-11.5c0-3.1-1.5-4.6-4.6-4.6h-78.7c-3.1,0-4.6,1.6-4.6,4.7V160.1z"/>
	<path class="st1" d="M1085.9,132.4h97.4c9.3,0,14,4.6,14,13.9v30c0,9.4-4.7,14.1-14,14.1h-97.4V132.4z M1097.5,178.8h83.5
		c3,0,4.5-1.6,4.5-4.8v-25.3c0-3.2-1.6-4.7-4.9-4.7h-83.2V178.8z"/>
	<path class="st1" d="M1317.8,190.4h-111.3v-58h111.3V144h-99.5v11.7h99.5v11.6h-99.5v11.5h99.5V190.4z"/>
	<path class="st1" d="M1438.5,190.4H1427v-23.2h-88.2v23.2h-11.5v-57.9h11.5v23.1h88.2v-23.1h11.5V190.4z"/>
</g>
</svg>
